<?xml version="1.0" standalone="no"?>
<!DOCTYPE svg PUBLIC "-//W3C//DTD SVG 20010904//EN"
 "http://www.w3.org/TR/2001/REC-SVG-20010904/DTD/svg10.dtd">
<svg version="1.0" xmlns="http://www.w3.org/2000/svg"
 width="512.000000pt" height="512.000000pt" viewBox="0 0 512.000000 512.000000"
 preserveAspectRatio="xMidYMid meet">

<g transform="translate(0.000000,512.000000) scale(0.100000,-0.100000)"
fill="#000000" stroke="none">
<path d="M3308 4149 c-14 -5 -392 -328 -839 -717 -628 -545 -819 -717 -839
-752 -20 -36 -25 -59 -25 -115 0 -131 -47 -84 853 -867 442 -385 820 -709 839
-720 26 -16 45 -19 80 -15 57 6 92 31 121 87 l22 44 0 1466 c0 1407 -1 1467
-19 1506 -10 23 -33 51 -51 64 -36 26 -102 35 -142 19z"/>
</g>
</svg>
